<?xml version="1.0" encoding="UTF-8"?>
<svg id="Layer_1" data-name="Layer 1" xmlns="http://www.w3.org/2000/svg" viewBox="0 0 250 250">
  <defs>
    <style>
      .cls-1 {
        fill: #2c4e68;
      }

      .cls-2 {
        fill: #456079;
      }

      .cls-3 {
        fill: #3ec33e;
      }

      .cls-4 {
        fill: #7a8389;
      }

      .cls-5 {
        fill: #43cc3d;
      }

      .cls-6 {
        fill: #6a9d73;
      }

      .cls-7 {
        fill: #4c6274;
      }

      .cls-8 {
        fill: #e5e6e7;
      }

      .cls-9 {
        fill: #3d586a;
      }

      .cls-10 {
        fill: #37536f;
      }

      .cls-11 {
        fill: #3c5b75;
      }

      .cls-12 {
        fill: #1fca19;
      }

      .cls-13 {
        fill: #233d58;
      }

      .cls-14 {
        fill: #63807c;
      }

      .cls-15 {
        fill: #304461;
      }

      .cls-16 {
        fill: #7f8a8f;
      }

      .cls-17 {
        fill: #e3e4e7;
      }

      .cls-18 {
        fill: #52c84f;
      }

      .cls-19 {
        fill: #2e4962;
      }

      .cls-20 {
        fill: #24425b;
      }

      .cls-21 {
        fill: #2e4960;
      }

      .cls-22 {
        fill: #0d2b48;
      }

      .cls-23 {
        fill: #375067;
      }

      .cls-24 {
        fill: #37556f;
      }

      .cls-25 {
        fill: #eaeae9;
      }

      .cls-26 {
        fill: #848b92;
      }

      .cls-27 {
        fill: #6b7c82;
      }

      .cls-28 {
        fill: #4e6770;
      }

      .cls-29 {
        fill: #77838d;
      }

      .cls-30 {
        fill: #314962;
      }

      .cls-31 {
        fill: #607078;
      }

      .cls-32 {
        fill: #49d14a;
      }

      .cls-33 {
        fill: #607379;
      }

      .cls-34 {
        fill: #48c945;
      }

      .cls-35 {
        fill: #314c65;
      }

      .cls-36 {
        fill: #385166;
      }

      .cls-37 {
        fill: #32536e;
      }

      .cls-38 {
        fill: #24425f;
      }

      .cls-39 {
        fill: #324d65;
      }

      .cls-40 {
        fill: #3cc335;
      }

      .cls-41 {
        fill: #64b761;
      }

      .cls-42 {
        fill: #3bce3d;
      }

      .cls-43 {
        fill: #223f5a;
      }

      .cls-44 {
        fill: #26415a;
      }

      .cls-45 {
        fill: #7f8c89;
      }

      .cls-46 {
        fill: #818f94;
      }

      .cls-47 {
        fill: #4ccd39;
      }

      .cls-48 {
        fill: #e4e5e6;
      }

      .cls-49 {
        fill: #609a70;
      }

      .cls-50 {
        fill: #36526a;
      }

      .cls-51 {
        fill: #48c744;
      }

      .cls-52 {
        fill: #63c159;
      }

      .cls-53 {
        fill: #1a3755;
      }

      .cls-54 {
        fill: #7b858c;
      }

      .cls-55 {
        fill: #304c61;
      }

      .cls-56 {
        fill: #3bc236;
      }

      .cls-57 {
        fill: #49ca43;
      }

      .cls-58 {
        fill: #314b66;
      }

      .cls-59 {
        fill: #284561;
      }

      .cls-60 {
        fill: #263f59;
      }

      .cls-61 {
        fill: #42cc3b;
      }

      .cls-62 {
        fill: #1a3653;
      }

      .cls-63 {
        fill: #eaeae8;
      }

      .cls-64 {
        fill: #38cd34;
      }

      .cls-65 {
        fill: #2d4d62;
      }

      .cls-66 {
        fill: #7c8a89;
      }

      .cls-67 {
        fill: #46d33c;
      }

      .cls-68 {
        fill: #41ce3a;
      }

      .cls-69 {
        fill: #3ac336;
      }

      .cls-70 {
        fill: #7d868c;
      }

      .cls-71 {
        fill: #36536e;
      }

      .cls-72 {
        fill: #46c943;
      }

      .cls-73 {
        fill: #28435d;
      }

      .cls-74 {
        fill: #2c4e6a;
      }

      .cls-75 {
        fill: #ededed;
      }

      .cls-76 {
        fill: #3b526a;
      }

      .cls-77 {
        fill: #223b55;
      }

      .cls-78 {
        fill: #254058;
      }

      .cls-79 {
        fill: #eaebeb;
      }

      .cls-80 {
        fill: #758389;
      }

      .cls-81 {
        fill: #3f6074;
      }

      .cls-82 {
        fill: #66767d;
      }

      .cls-83 {
        fill: #4bcc49;
      }

      .cls-84 {
        fill: #2a4a64;
      }

      .cls-85 {
        fill: #55cb4c;
      }

      .cls-86 {
        fill: #868d91;
      }

      .cls-87 {
        fill: #3f596d;
      }

      .cls-88 {
        fill: #42cd3f;
      }
    </style>
  </defs>
  <path class="cls-53" d="M125.77,69.02c1.35-8.37,11.69-8.89,18.03-4.95,11.66,7.25,13.15,9.89,21.81,19.55,2.64,2.95,7.68,4.38,9.88,8.53,2.77,5.22,1.35,11.1,2.76,15.65.68,2.2,3.47,3.75,4.58,6.15,2.27,4.89,3.06,22.23,2.07,27.19-.83,4.16-5.84,7.5-6.65,10.26-1.34,4.53.61,7.26-2.7,12.64-4.53,7.36-9.2,5.74-12.63,8.07-1,.68-1.13,4.69-4.37,7.14-2.66,2.01-6.57,2.08-8.54,3.33-4.81,3.04-6.22,9.24-15.44,7.34-12.94-2.66-8.85-14.18-8.73-21.92.3-19.17-.21-38.41-.07-57.58.33-2.71.87-3.35,1.63-1.93.62-14.87.07-28.03-1.63-39.48Z"/>
  <path class="cls-62" d="M117.74,64.78c1.69,1.67,1.75,5.65,1.96,8.01,2.95,34.32-2.39,72.73.01,107.51-2.23,10.28-11.2,11.05-19.56,7.13-8.97-4.2-12.99-10.34-18.97-14.76-3.02-2.23-6.26-1.25-9.79-5.55-4.48-5.46-2.64-10.52-4.7-15.24-1.13-2.58-5.54-4.11-6.56-8.8-.43-1.97-.61-20.12-.36-22.7.8-8.48,6.47-8.71,8.49-13.08,1.2-2.58-.62-10.07,2.49-15.85,2.21-4.11,6.63-5,9.05-7.82,8.1-9.45,8.9-11.99,20.61-19.25,4.5-2.79,13.49-3.4,17.34.41Z"/>
  <path class="cls-22" d="M125.77,69.02c4.63-.86,2.97,2.34,3.07,5.3.33,9.91.39,20.92,0,30.81-.12,2.95,1.58,6.15-3.07,5.3.09-11.85-1.72-30.7,0-41.41Z"/>
  <path class="cls-46" d="M214.71,107.37l1.54,15.34h-4.59c1.69-5.48-4.96-15.19,3.05-15.34Z"/>
  <path class="cls-45" d="M72.43,205.23c-5.73-8.89,14.16.13,13.45,4.11-.6,3.4-3.54,1.25-5.1.55-1.3-.58-8.09-4.26-8.35-4.66Z"/>
  <path class="cls-29" d="M208.38,89.18c.59.41,6.46,12.82,2.49,13.57-4.16.78-10.52-19.15-2.49-13.57Z"/>
  <path class="cls-52" d="M67.48,194.81c1.03,1.35-1.43,5.11-3.8,4.57-.85-.19-8.77-8.23-8.45-9.94,1-5.27,7.33,2.78,8.46,3.85,1.26,1.2,3.67,1.36,3.79,1.52Z"/>
  <path class="cls-66" d="M176.38,49.1c1.02,1.29-1.02,4.66-3.61,4.43-1.2-.11-10.11-6.14-10.16-6.75-.4-4.37,13.32,1.75,13.77,2.32Z"/>
  <path class="cls-26" d="M197.83,70.55c-.15,1.81,10.36,13.94,3.86,13.77-1.26-.03-11.45-12.23-3.86-13.77Z"/>
  <path class="cls-69" d="M213.18,150.31c1.33,7.2-9.94,20.63-6.93,7.64.88-3.79,2.33-9.46,6.93-7.64Z"/>
  <path class="cls-16" d="M191.71,67.48c-2.11,2.4-15.74-12.53-8.43-12.23.76.03,10.73,9.61,8.43,12.23Z"/>
  <path class="cls-54" d="M124.24,214.73v4.59c-17.85,1.66-17.85-6.25,0-4.59Z"/>
  <path class="cls-10" d="M217.76,58.29c.54.4,7.11,12.35,2.33,12.23-.56-.01-6.65-7.75-6.77-8.58-.37-2.53,3.1-4.65,4.44-3.65Z"/>
  <rect class="cls-18" x="29.15" y="118.09" width="4.59" height="12.29"/>
  <rect class="cls-19" x="7.68" y="113.49" width="4.59" height="12.29"/>
  <path class="cls-57" d="M200.9,179.44c-1.29,1.02-4.64-1.01-4.43-3.6s4.81-6.68,6.75-8.64c4.28-.12-1.8,11.82-2.32,12.24Z"/>
  <path class="cls-74" d="M197.84,36.84c1.03,1.36-1.43,5.11-3.78,4.55-.87-.21-6.46-6.01-8.45-6.88,1.09-5.12,11.56,1.44,12.23,2.33Z"/>
  <path class="cls-85" d="M32.22,150.3l-1.54-13.79c7.13-1.15,6.36,18.14,1.54,13.79Z"/>
  <rect class="cls-80" x="118.09" y="237.74" width="12.29" height="4.59"/>
  <path class="cls-35" d="M26.84,184.08c.69.06,9.58,11.37,4.58,12.23-4.22.73-9.64-12.65-4.58-12.23Z"/>
  <rect class="cls-20" x="115.02" y="10.74" width="12.29" height="4.59"/>
  <path class="cls-41" d="M216.25,130.38c-.32,3.72,1.67,14.33-4.59,13.79.5-4.57-2.52-13.68,4.59-13.79Z"/>
  <path class="cls-71" d="M151.84,19.93c-1.08-7.59,11.66-3.34,12.26-.74,1.5,6.49-9.79.06-12.26.74Z"/>
  <path class="cls-4" d="M150.31,214.72c-3.35-2.82,14.17-10.51,13.77-5.36-1.8,2.54-11.8,7.01-13.77,5.36Z"/>
  <path class="cls-86" d="M144.16,213.2c3.49,3.85-4.13,5.59-7.31,5.73-16.47.74,5.23-8.02,7.31-5.73Z"/>
  <path class="cls-11" d="M207.08,55.21c-.33-.25-3.83-5.71-4.63-6.91-1.33-1.98-1.62-3.36.79-3.81,1.72-.32,8.21,6.07,8.41,6.92.54,2.36-3.18,4.84-4.57,3.8Z"/>
  <path class="cls-70" d="M104.2,213.31c4.81,7.15-9.13,2.56-11.15,1.44-1.74-.96-1.29-4.31-1.02-4.62.41-.47,11.82,2.66,12.17,3.18Z"/>
  <path class="cls-67" d="M194.78,184.06c1.63,1.44-9.59,14.42-10.72,8.4-.5-2.69,8.34-10.51,10.72-8.4Z"/>
  <path class="cls-7" d="M108.89,12.28c1.57,4.58-11.78,6.67-12.25,6.12-4.36-5.13,9.29-7.33,12.25-6.12Z"/>
  <path class="cls-37" d="M180.97,30.67c-.71.75-11.32-3.48-10.72-6.87.9-5.08,14.19,3.22,10.72,6.87Z"/>
  <path class="cls-32" d="M236.19,145.7c.48.46-.19,13.77-3.8,12.26-4.2-1.75.31-9.27-.78-12.27,1.24.2,4.27-.29,4.59.01Z"/>
  <path class="cls-47" d="M138.04,35.29c-2.27,5.08-9.46,2.57-13.81,3.04-1.9-8.55,8.03-3.33,13.81-3.04Z"/>
  <path class="cls-28" d="M75.15,231.59c-.71.75-11.32-3.48-10.72-6.87.9-5.08,14.19,3.22,10.72,6.87Z"/>
  <path class="cls-72" d="M39.86,95.09c-1.3.96-3.67-.98-4.54-2.29,2.48-1.45,3.53-11.09,6.84-9.96,3.68,1.25,1.05,3.43.51,5.05-.39,1.15-2.5,6.97-2.81,7.2Z"/>
  <path class="cls-34" d="M38.37,167.17c-.51-.37-4.09-11.07-3.08-12.26,2.25-2.64,7.66,9.33,7.62,9.97-.05.98-3.41,3.12-4.54,2.29Z"/>
  <path class="cls-87" d="M145.71,12.28v4.59c-15.83,1.53-15.83-6.12,0-4.59Z"/>
  <path class="cls-61" d="M228.31,174.61c-8.38,5.84-.81-11.92.98-12.01,4.29-.21.29,11.12-.98,12.01Z"/>
  <path class="cls-6" d="M157.97,39.9c5.1,5.07-8.64,1.65-10.74.68-2.3-1.06-3.79.24-3.05-3.76,2.32-.36,12.88,2.18,13.79,3.08Z"/>
  <path class="cls-5" d="M99.69,41.4c-.35.38-8.13,1.52-9.88,3.05-9.53-7.08,15.15-8.72,9.88-3.05Z"/>
  <path class="cls-55" d="M56.74,33.75c2.71,2.84-7.88,12.75-10.7,6.89,1.17-1.83,9.06-8.6,10.7-6.89Z"/>
  <path class="cls-21" d="M72.08,23.01c2.82,3.12-8.46,12.78-10.71,6.87-.91-2.38,8.65-6.32,10.71-6.87Z"/>
  <path class="cls-40" d="M45.25,171.81c2.43,3.13,9.85,8.69,4.6,12.21-2.43-3.13-9.85-8.69-4.6-12.21Z"/>
  <path class="cls-24" d="M37.58,199.42c.68.03,11.54,9.68,6.11,10.7-3.63.68-12.06-10.94-6.11-10.7Z"/>
  <path class="cls-9" d="M237.59,110.55c.9.55,2.36,9.95,1.66,10.62-.17.16-4.42.16-4.58,0-.55-.53-3.89-14.8,2.92-10.62Z"/>
  <path class="cls-44" d="M23.01,72.08c-.87-2.43,3.81-12.13,5.36-12.23,5.12-.35-.57,13.73-5.36,12.23Z"/>
  <path class="cls-83" d="M36.8,99.7c.19,3.86-1.41,16.58-6.12,12.25-.53-.49,1.18-13.83,6.12-12.25Z"/>
  <path class="cls-14" d="M173.32,225.48c.39-.52,12.5-6.62,12.24-2.32l-9.95,6.86c-1.31-.86-3.25-3.27-2.29-4.54Z"/>
  <path class="cls-2" d="M236.19,104.29c-4.95,1.42-7.11-11.09-6.12-12.26,4.95-1.42,7.11,11.09,6.12,12.26Z"/>
  <path class="cls-31" d="M83.58,230.1c4.26.03,16.52,9.21,3.75,6.98-6.8-1.19-7.23-7-3.75-6.98Z"/>
  <path class="cls-23" d="M18.19,88.72c-.7.44-4.22.89-4.37-.51,7.17-23.04,9.71-2.81,4.37.51Z"/>
  <path class="cls-76" d="M226.78,75.39c1.24.86,5.19,10.24.97,12.03-.77.32-9.82-18.19-.97-12.03Z"/>
  <path class="cls-51" d="M51.38,67.52c3.12,2.56,2.62,2.35.76,5.33-8.61,13.87-9.76,1.42-.76-5.33Z"/>
  <path class="cls-30" d="M15.33,95.1c0,1.74-.02,13.63-3.8,12.25-3.24-1.18-1.25-13.51,3.8-12.25Z"/>
  <path class="cls-1" d="M13.78,150.31c1.28,1.3,5.45,14.15-1.5,12.26-.7-1.1-3.23-17.08,1.5-12.26Z"/>
  <path class="cls-88" d="M213.18,196.33c1.85,2.88-6.02,10.66-6.89,10.7-6.82.28,4.65-13.22,6.89-10.7Z"/>
  <path class="cls-65" d="M33.75,56.74c-1.85-2.88,6.02-10.66,6.89-10.7,6.82-.28-4.65,13.22-6.89,10.7Z"/>
  <path class="cls-68" d="M81.28,44.49c3.18,3.4-4,6-6.02,6.98-1.23.59-4.04,3.9-4.7-.11-.56-3.43,10.02-7.62,10.72-6.87Z"/>
  <path class="cls-42" d="M223.92,180.99c1.36,1.49-3.8,11.31-6.87,10.72-5.33-1.03,4.94-12.83,6.87-10.72Z"/>
  <path class="cls-49" d="M179.44,197.86c2.11,1.93-9.7,12.2-10.72,6.87-.59-3.07,9.23-8.23,10.72-6.87Z"/>
  <path class="cls-50" d="M12.26,144.16c-6.66,1.22-5.36-12.18-2.29-12.23s2.45,9.93,2.29,12.23Z"/>
  <path class="cls-39" d="M85.5,17.2c6.7-.82,5.79,3.9-1.05,5.15-8.81,1.6-6.9-4.17,1.05-5.15Z"/>
  <path class="cls-3" d="M190.19,219.32c-3.37-3.8,11.09-12.64,10.7-6.89-1.21,1.5-9.45,8.3-10.7,6.89Z"/>
  <path class="cls-81" d="M51.38,211.69c.49.02,5.68,5.65,7.69,6.1-1.77,9.34-14.83-6.4-7.69-6.1Z"/>
  <path class="cls-84" d="M19.72,168.95c.64.45,4.11,9.57,3.28,10.5-3.35,3.76-12.31-16.77-3.28-10.5Z"/>
  <path class="cls-27" d="M167.17,230.07c3.5,5.59-9.81,6.9-10.72,6.12-3.04-2.6,8.52-7.32,10.72-6.12Z"/>
  <path class="cls-33" d="M111.97,237.75c4.18,3.95-13.85,5.55-12.26-1.54,1.96-.19,11.65.96,12.26,1.54Z"/>
  <path class="cls-56" d="M118.09,38.34c-6.22-1.67-14.08,5.58-12.27-3.05,4.78,1.18,12.42-4.14,12.27,3.05Z"/>
  <path class="cls-82" d="M148.77,236.2c3.77,3.02-14.22,9.18-10.74,0h10.74Z"/>
  <path class="cls-12" d="M237.72,127.29v10.75l-4.59-.02c1.39-3.98,1.39-6.74,0-10.71l4.59-.02Z"/>
  <path class="cls-64" d="M65.94,55.22c2.94,3.29-8.17,10.2-9.19,9.19-.93-2.99,7.79-10.75,9.19-9.19Z"/>
  <path class="cls-63" d="M154.91,98.16c4.84-.68,6.41,1.67,6.15,6.14,13.7-5.87,9.09-1.18,12.35,6.49.56,1.31,3.49,2.58,5.06,5.91,7.3,15.44-4.92,11.19-7.53,15.17-1.19,1.81-.3,5.61-.76,6.1-.43.46-10.78.29-12.66-.26-4.56-1.33-4.54-7.6-7.98-7.52-6.19.15-11.04,10.51-19.18,7.84.5-3.08-.71-19.24,0-19.94.41-.39,7.5-.29,11.13-1.91,3.06-1.36,10.27-7.28,11.86-10.37.63-2.78,1.14-5.34,1.53-7.67Z"/>
  <path class="cls-75" d="M167.17,151.83c10.55-.97,5.26,12.79-1.53,14.74-2.31.66-5.53-.78-6.23-.26-2.45,1.8-.56,13.08-11.1,9.84-2.08-.64-7.95-9.35-11.03-12.04-1.89-1.66-6.41-2.89-6.67-3.29-.49-.76-.81-17.46-.18-18.11.3-.31,6.09-.46,8.49-1.48,2.76-1.17,7.29-6.03,9.11-5.89s4.89,6.08,7.96,6.99c2.78.82,12.01.91,14.25-.45s3.08-8.26,8.41-6.9c4.98,1.27-.41,9.15-2.96,10.81-3.2,2.09-9.08.83-8.52,6.04Z"/>
  <path class="cls-48" d="M153.37,105.83c2.93-6.59-4.41-11.42-4.7-14.64-.14-1.53,6.77-13.06-.64-11.42-3.3.73-4.16,10.21-3.82,13,.43,3.44,3.69,4.25,4.35,6.5,2.39,8.21-11.05,15.73-18.19,14.24v-43.71c0-3.07,13.64-4.31,12.27,2.29-1.24.18-7.67,1.15-7.67,1.55v28.37c0,.97-4.14,4.2.79,3.88,3.03-.2,5.49-1.07,6.67-4.12,1.63-4.24-2.56-3.23-2.84-4.62-2.2-10.61-.27-30.72,14.56-20.44,4.49,3.11,4.38,7.06,6.98,9.88,2.24,2.42,9.32,4.68,10.63,7.78,1.5,3.55-8.99,2.64-9.89,2.38-1.85-.52.88-7.05-4.66-4.69-2.64,1.12-2.01,4.03-2.31,6.12-.49,3.4.53,3.68-1.53,7.67Z"/>
  <path class="cls-17" d="M130.38,165.65c2.2-2.47,23.64,19.77,6.9,19.8-10.11.02-6.35-13.03-6.9-19.8Z"/>
  <path class="cls-79" d="M95.09,98.16c-2.07.51-4.45-.65-6.1,2.29,2.81,5.15,7.91,13.19,13.34,15.77,3.31,1.57,10.75,1.52,12.03,3.3,2.06,2.86-.09,14.31.66,18.51-7.84,2.13-12.42-8.42-19.11-7.72-5.08.53-5.86,11.94-18.27,7.52-2.77-.99-2.09-4.97-4.05-6.68-3.06-2.66-9.2-.26-9.27-7.63-.07-7.96,5.13-9.18,6.95-13.15,1.18-2.57.31-6.96,2.29-8.51,1.8-1.41,5.57,1.66,8.29.77,1.74-.57,1.85-3.21,2.99-4.09,1.24-.95,3.84-.16,4.11-.41,1.08-1.02-.57-6.91-3.81-6.12-1.46.36-6.4,8.1-11.52,6.12,4.07-4.37,11.57-17.84,15.21-20.82,3.32-2.71,6.91-2,9.98-3.89,2.45-1.5,1.86-4.86,6.57-5.66,2.92-.49,9.65.39,9.65,3.53v42.18c-10.88,1.17-18.73-4.7-19.94-15.34,2.48-4.05,3.36-6.69,1.74-11.71,1.87,5.18,1.29,9.08-1.74,11.71Z"/>
  <path class="cls-25" d="M78.22,153.37c1.63-7.46-7.66-4.88-11.46-9.24-2.18-2.5-2.56-5.97-2.34-9.15,7.72-3.07,8.95,7.43,10.14,7.76,1.69.47,12.97.2,14.87-.38,3.88-1.19,4-7.45,7.94-7.48,3.03-.02,6.03,5.77,9.91,7.08,2.33.79,7.46.42,7.74.68.67.63.28,16.67-.77,18.39-5.25,1.3-16.46,16.58-19.62,16.56-8.83-.04-7.66-8.99-9.02-10.15s-8.93-.13-12.09-5.54c-3.67-6.29-2.8-8.35,3.16-8.54,4.17,2.22,4.68,2.22,1.53,0Z"/>
  <path class="cls-13" d="M78.22,153.37c10.72-1.25,5.98-3.44,11.69-7.48,4.01-2.84,9.04-3.78,13.39-1.53,11.45,5.89,6.15,16.58,1.03,9.3-1.1-1.57.46-4.46-3.89-4.99-12.66-1.54-10.04,9.73-17.48,11.64-4.31,1.11-6-3.4-6.28-6.94.51-.02,1.04.06,1.53,0Z"/>
  <path class="cls-8" d="M115.02,167.19c-.32,5.97,2.38,15.55-5.43,16.85-20.04,3.35,3.29-19.26,5.43-16.85Z"/>
  <path class="cls-43" d="M164.1,107.37c1.88,6.56-7.77,7.91-9.18,11.52-1.05,2.7,3.74,3.14,5.46,5.22s2.69,3.36,2.18,6.26c-1.62,1.79-9.77-10.72-20.54-4.43-5.08,2.97-1.89,8.38-10.12,4.42.96-8.28,11.32-8.25,16.73-11.62,5.1-3.18,8.44-11.14,15.47-11.36Z"/>
  <path class="cls-15" d="M174.84,122.69c-2.57,2.51-12.91-2.48-9.19-6.12,2.57-2.51,12.91,2.48,9.19,6.12Z"/>
  <path class="cls-73" d="M144.17,145.71c.72-.22,2.04-2.78,3.79-2.63,3.38.28,9.04,8.38,11.57,9.52,5.49,2.47,9.04-2.58,7.64,6.91-2.35-.83-8.47-.04-10.02-.57-2.34-.79-2.57-5.68-5.18-8.03s-4.78-1.43-6.27-2.14c-4.12.86-4.4-.04-1.53-3.07Z"/>
  <path class="cls-58" d="M153.37,168.7c-3.01,3.01-14.68-10.93-8.41-12.25,3.29-.69,10.03,10.63,8.41,12.25Z"/>
  <path class="cls-36" d="M144.17,145.71c.55.7,1.11,2.87,1.53,3.07l-12.26,6.13c.48-7.97,5.31-7.51,10.73-9.19Z"/>
  <path class="cls-77" d="M84.27,107.45c.14.08-.08,1.86,1.23,2.93,2.86,2.34,7.31,6.93,9.71,8.36,3.93,2.34,18.24,4.08,16.76,10.81-1.5,6.84-7.28-2.66-8.73-3.5-3.44-2-10.65-2.68-14.25-1.02-1.76.81-4.57,5.27-5.39,5.3-6.03.24,2.26-10.31,5.39-9.95.04-5.2-8.84-6.45-9.18-6.95-1.53-2.28,1.78-7.61,4.47-5.98Z"/>
  <path class="cls-59" d="M110.43,105.06c-.93,3.74-5.31.86-5.88-1.84-.78-3.66,2.5-14.61,1.25-21.13-.7-3.67-4.33-5.18-4.57-6.19-1.39-6.01,9.2-2.44,9.2.02,0,7.01,1.35,23.71,0,29.14Z"/>
  <path class="cls-38" d="M95.09,98.16c-.3-2.63.36-5.51-.06-8.33-.32-2.13-6.01-8.75.78-9.64,6.42-.84,2.69,11.21,5.21,15.54-1.08,3.12-3.94,1.94-5.94,2.43Z"/>
  <path class="cls-60" d="M79.75,121.14c-.81,1.03-12.11,5.29-10.73-.73,1.21-5.27,14.36-3.89,10.73.73Z"/>
  <path class="cls-78" d="M98.93,156.47c.27,0,3.8,3.54,3.81,3.81,0,.65-8.17,8.79-9.92,8.43-6.61-1.36,5.33-12.24,6.11-12.23Z"/>
</svg>